<?xml version="1.0" encoding="iso-8859-1"?>
<!-- Generator: Adobe Illustrator 19.0.0, SVG Export Plug-In . SVG Version: 6.00 Build 0)  -->
<svg version="1.1" id="Capa_1" xmlns="http://www.w3.org/2000/svg" xmlns:xlink="http://www.w3.org/1999/xlink" x="0px" y="0px"
	 viewBox="0 0 512 512" style="enable-background:new 0 0 512 512;" xml:space="preserve">
<path style="fill:#363C44;" d="M420.452,182.786c0,0-1.849-13.793-9.373-23.826c-7.524-10.032-60.613-25.917-66.465-26.753
	c-5.852-0.836-21.737,19.647-32.187,19.647s-56.432,0-56.432,0s-45.982,0-56.432,0c-10.45,0-26.335-20.483-32.187-19.647
	s-58.94,16.721-66.465,26.753c-7.524,10.032-9.373,23.826-9.373,23.826l117.351,50.979h133.674L420.452,182.786z"/>
<path style="fill:#2E343A;" d="M342.562,233.764l77.89-50.979c0,0-1.849-13.793-9.373-23.826c-5.362-7.15-33.863-17.271-51.919-22.8
	c-7.189,0.828-14.055,4.016-19.378,9.339l-32.675,32.675c-5.961,5.961-14.047,9.311-22.478,9.311h-28.635H227.36
	c-8.431,0-16.516-3.349-22.478-9.311l-32.675-32.675c-5.323-5.323-12.189-8.511-19.378-9.339
	c-18.056,5.529-46.557,15.65-51.919,22.8c-7.524,10.032-9.373,23.826-9.373,23.826l117.351,50.979H342.562z"/>
<path style="fill:#555E6B;" d="M255.994,213.72h28.635c8.431,0,16.516-3.349,22.478-9.311l32.675-32.675
	c9.054-9.054,22.562-11.987,34.556-7.502l32.772,12.254c27.369,10.234,48.004,33.203,55.257,61.508l38.984,152.133
	c10.623,41.455-7.829,84.889-45.042,106.022l0,0c-2.697,1.532-6.107,0.875-8.042-1.549l-66.688-83.521
	c-10.152-12.715-25.539-20.119-41.81-20.119h-83.775h-83.775c-16.271,0-31.658,7.404-41.81,20.119L63.722,494.6
	c-1.935,2.424-5.345,3.08-8.042,1.549l0,0c-37.212-21.133-55.665-64.567-45.042-106.022l38.984-152.133
	c7.253-28.305,27.889-51.275,55.257-61.508l32.772-12.254c11.994-4.485,25.501-1.552,34.556,7.502l32.675,32.675
	c5.961,5.961,14.047,9.311,22.478,9.311L255.994,213.72"/>
<g>
	<path style="fill:#414954;" d="M501.35,390.127l-38.984-152.133c-7.253-28.305-27.888-51.275-55.257-61.508l-32.772-12.254
		c-10.282-3.844-21.667-2.223-30.415,4.018l22.027,8.236c27.369,10.234,48.004,33.203,55.257,61.508l38.984,152.133
		c8.345,32.569-1.262,66.353-23.806,89.591l11.883,14.883c1.935,2.424,5.345,3.08,8.042,1.549l0,0
		C493.521,475.016,511.973,431.582,501.35,390.127z"/>
	<path style="fill:#414954;" d="M89.249,411.079l-54.805,68.639c6.151,6.34,13.258,11.901,21.235,16.431l0,0
		c2.697,1.532,6.107,0.875,8.042-1.549l66.688-83.521c10.152-12.715,25.539-20.119,41.81-20.119h-41.16
		C114.788,390.96,99.401,398.364,89.249,411.079z"/>
	<circle style="fill:#414954;" cx="131.83" cy="243.24" r="28.425"/>
	<circle style="fill:#414954;" cx="328.1" cy="321.79" r="39.04"/>
	<path style="fill:#414954;" d="M226.701,309.466h-15.126c-2.474,0-4.479-2.005-4.479-4.479v-15.126
		c0-3.925-3.182-7.107-7.107-7.107h-10.438c-3.925,0-7.107,3.182-7.107,7.107v15.126c0,2.474-2.005,4.479-4.479,4.479H162.84
		c-3.925,0-7.107,3.182-7.107,7.107v10.438c0,3.925,3.182,7.107,7.107,7.107h15.125c2.474,0,4.479,2.005,4.479,4.479v15.126
		c0,3.925,3.182,7.107,7.107,7.107h10.438c3.925,0,7.107-3.182,7.107-7.107v-15.126c0-2.474,2.005-4.479,4.479-4.479H226.7
		c3.925,0,7.107-3.182,7.107-7.107v-10.438C233.807,312.648,230.626,309.466,226.701,309.466z"/>
	<circle style="fill:#414954;" cx="351.97" cy="250.34" r="9.405"/>
	<circle style="fill:#414954;" cx="386.77" cy="214.91" r="9.405"/>
	<circle style="fill:#414954;" cx="385.07" cy="284.56" r="9.405"/>
	<circle style="fill:#414954;" cx="420.13" cy="250.34" r="9.405"/>
</g>
<circle style="fill:#FFD82F;" cx="131.83" cy="236.07" r="28.425"/>
<circle style="fill:#2E343A;" cx="328.1" cy="314.62" r="39.04"/>
<path style="fill:#49BC6E;" d="M226.701,302.298h-15.126c-2.474,0-4.479-2.005-4.479-4.479v-15.126c0-3.925-3.182-7.107-7.107-7.107
	h-10.438c-3.925,0-7.107,3.182-7.107,7.107v15.126c0,2.474-2.005,4.479-4.479,4.479H162.84c-3.925,0-7.107,3.182-7.107,7.107v10.438
	c0,3.925,3.182,7.107,7.107,7.107h15.125c2.474,0,4.479,2.005,4.479,4.479v15.126c0,3.925,3.182,7.107,7.107,7.107h10.438
	c3.925,0,7.107-3.182,7.107-7.107v-15.126c0-2.474,2.005-4.479,4.479-4.479H226.7c3.925,0,7.107-3.182,7.107-7.107v-10.438
	C233.807,305.48,230.626,302.298,226.701,302.298z"/>
<circle style="fill:#6E7A89;" cx="321.27" cy="303.33" r="21.596"/>
<path d="M487.071,468.758c-3.25-2.726-8.094-2.3-10.82,0.95c-6.427,7.663-14.066,14.111-22.719,19.178l-65.951-82.598
	c-11.676-14.622-29.103-23.008-47.813-23.008h-83.774H172.22c-18.71,0-36.137,8.386-47.813,23.008l-2.657,3.463
	c-2.646,3.315-2.105,8.147,1.21,10.794c1.415,1.13,3.107,1.679,4.787,1.679c2.255,0,4.49-0.989,6.007-2.889l2.657-3.463
	c8.744-10.951,21.795-17.231,35.808-17.231h83.775h83.774c14.013,0,27.064,6.281,35.808,17.231l66.689,83.522
	c2.747,3.441,6.784,5.277,10.907,5.277c2.356,0,4.741-0.6,6.93-1.843c10.668-6.059,20.062-13.881,27.919-23.25
	C490.747,476.328,490.321,471.483,487.071,468.758z"/>
<path d="M508.791,388.221l-38.984-152.132c-6.229-24.31-21.583-45.011-42.437-58.099c-1.164-5.373-4.01-15.455-10.147-23.638
	c-1.709-2.279-6.25-8.333-37.424-19.451c-14.293-5.098-30.067-9.722-34.099-10.298c-6.01-0.855-11.264,3.553-18.523,9.661
	c-3.822,3.217-11.777,9.91-14.751,9.91h-56.432h-56.432c-2.974,0-10.929-6.693-14.751-9.91c-7.26-6.107-12.509-10.523-18.523-9.661
	c-4.032,0.576-19.806,5.2-34.099,10.298c-31.174,11.118-35.715,17.172-37.424,19.451c-6.137,8.182-8.984,18.264-10.147,23.637
	c-20.854,13.088-36.207,33.79-42.436,58.099L3.198,388.221c-11.453,44.694,8.57,91.822,48.69,114.607
	c2.188,1.243,4.572,1.842,6.928,1.842c4.123,0,8.161-1.837,10.909-5.277l38.688-48.454c2.646-3.315,2.105-8.147-1.21-10.794
	c-3.314-2.647-8.147-2.105-10.795,1.21l-37.95,47.531c-33.433-19.584-50.02-59.231-40.379-96.851l38.984-152.133
	c6.624-25.855,25.505-46.872,50.507-56.221l32.773-12.254c9.149-3.421,19.527-1.169,26.434,5.739l32.676,32.675
	c7.454,7.454,17.366,11.56,27.908,11.56h28.635h28.634c10.543,0,20.454-4.105,27.91-11.56l8.437-8.437
	c2.999-3,2.999-7.862-0.001-10.862c-2.998-3-7.862-2.999-10.862,0l-8.435,8.436c-4.554,4.554-10.609,7.061-17.048,7.061h-28.634
	h-28.635c-6.439,0-12.494-2.508-17.047-7.061l-32.675-32.675c-11.153-11.152-27.906-14.789-42.676-9.266l-30.998,11.59
	c0.878-1.75,1.899-3.472,3.087-5.056c0.15-0.193,3.996-4.825,30.311-14.209c13.056-4.656,25.703-8.319,29.937-9.313
	c1.808,1.073,5.245,3.966,7.622,5.966c7.531,6.336,16.064,13.517,24.641,13.517h56.432h56.432c8.577,0,17.111-7.181,24.641-13.517
	c2.376-2,5.813-4.892,7.622-5.965c4.24,0.996,16.885,4.658,29.937,9.312c26.314,9.384,30.161,14.016,30.308,14.204
	c1.191,1.588,2.214,3.313,3.093,5.062l-31.001-11.592c-14.775-5.524-31.524-1.887-42.676,9.266c-2.999,3-2.999,7.862,0.001,10.862
	c2.998,3,7.862,2.999,10.862,0c6.906-6.908,17.283-9.161,26.433-5.739l32.773,12.254c25.001,9.349,43.882,30.366,50.507,56.221
	l38.984,152.133c3.887,15.167,3.618,31.116-0.778,46.12c-1.193,4.071,1.14,8.337,5.211,9.53c0.721,0.212,1.447,0.312,2.162,0.312
	c3.323,0,6.387-2.173,7.368-5.523C513.045,424.821,513.362,406.061,508.791,388.221z"/>
<path d="M131.827,199.961c-19.909,0-36.106,16.197-36.106,36.105s16.197,36.105,36.106,36.105s36.106-16.197,36.106-36.105
	S151.736,199.961,131.827,199.961z M131.827,256.811c-11.439,0-20.745-9.306-20.745-20.745s9.306-20.745,20.745-20.745
	s20.745,9.306,20.745,20.745S143.266,256.811,131.827,256.811z"/>
<path d="M291.998,314.623c0,19.909,16.197,36.105,36.106,36.105s36.106-16.197,36.106-36.105c0-19.909-16.197-36.106-36.106-36.106
	C308.195,278.518,291.998,294.714,291.998,314.623z M348.849,314.623c0,11.439-9.307,20.745-20.745,20.745
	c-11.439,0-20.745-9.306-20.745-20.745s9.306-20.745,20.745-20.745S348.849,303.184,348.849,314.623z"/>
<path d="M199.99,267.906h-10.438c-8.155,0-14.788,6.633-14.788,14.787v11.924H162.84c-8.154,0-14.787,6.633-14.787,14.787v10.438
	c0,8.154,6.633,14.787,14.787,14.787h11.924v11.924c0,8.154,6.633,14.787,14.788,14.787h10.438c8.154,0,14.787-6.633,14.787-14.787
	V334.63H226.7c8.155,0,14.788-6.633,14.788-14.787v-10.438c0-8.154-6.633-14.787-14.788-14.787h-11.924v-11.924
	C214.777,274.54,208.144,267.906,199.99,267.906z M226.127,309.978v9.291h-14.553c-6.704,0-12.159,5.454-12.159,12.159v14.552
	h-9.291v-14.552c0-6.704-5.454-12.159-12.159-12.159h-14.552v-9.291h14.552c6.705,0,12.159-5.455,12.159-12.159v-14.552h9.291
	v14.552c0,6.704,5.454,12.159,12.159,12.159L226.127,309.978L226.127,309.978z"/>
<circle cx="351.97" cy="243.17" r="9.405"/>
<circle cx="255.99" cy="106.69" r="9.405"/>
<circle cx="386.77" cy="207.74" r="9.405"/>
<circle cx="385.07" cy="277.39" r="9.405"/>
<circle cx="420.13" cy="243.17" r="9.406"/>
<path d="M304.72,64.884c2.715-3.259,2.273-8.102-0.986-10.817c-27.179-22.639-66.635-22.639-93.815,0
	c-3.259,2.715-3.701,7.557-0.986,10.817c1.519,1.824,3.704,2.765,5.905,2.765c1.733,0,3.476-0.583,4.911-1.779
	c21.481-17.894,52.667-17.895,74.154,0C297.16,68.585,302.004,68.144,304.72,64.884z"/>
<path d="M198.559,44.555c33.082-29.165,82.974-29.165,116.056,0c1.46,1.287,3.272,1.919,5.076,1.919c2.128,0,4.246-0.88,5.764-2.601
	c2.805-3.182,2.499-8.035-0.682-10.841c-38.872-34.27-97.501-34.27-136.373,0c-3.181,2.805-3.487,7.658-0.682,10.841
	C190.523,47.054,195.377,47.36,198.559,44.555z"/>
<path d="M277.337,88.884c2.403,0,4.77-1.125,6.268-3.233c2.456-3.458,1.645-8.252-1.813-10.71
	c-15.059-10.698-35.293-10.699-50.352,0c-3.458,2.457-4.269,7.252-1.813,10.71c2.457,3.458,7.25,4.269,10.709,1.813
	c9.737-6.919,22.822-6.918,32.559,0C274.246,88.424,275.799,88.884,277.337,88.884z"/>
<g>
</g>
<g>
</g>
<g>
</g>
<g>
</g>
<g>
</g>
<g>
</g>
<g>
</g>
<g>
</g>
<g>
</g>
<g>
</g>
<g>
</g>
<g>
</g>
<g>
</g>
<g>
</g>
<g>
</g>
</svg>
